<svg width="17" height="18" viewBox="0 0 17 18" fill="none" xmlns="http://www.w3.org/2000/svg">
<path d="M3.26809 8.16996H0.889275C0.397395 8.16996 0 8.56736 0 9.05924C0 9.55112 0.397395 9.94851 0.889275 9.94851L2.33157 15.7149C2.52888 16.5069 3.2403 17.0627 4.05732 17.0627H11.9496C12.7667 17.0627 13.4781 16.5069 13.6754 15.7149L15.1177 9.94851C15.6096 9.94851 16.007 9.55112 16.007 9.05924C16.007 8.56736 15.6096 8.16996 15.1177 8.16996H12.7389C7.71169 8.16987 11.3381 8.16996 3.26809 8.16996ZM5.33565 11.2824V13.9503C5.33565 14.1948 5.13557 14.3949 4.89101 14.3949C4.64646 14.3949 4.44638 14.1948 4.44638 13.9503V11.2824C4.44638 11.0379 4.64646 10.8378 4.89101 10.8378C5.13557 10.8378 5.33565 11.0379 5.33565 11.2824ZM8.00348 10.8378C8.24803 10.8378 8.44812 11.0379 8.44812 11.2824V13.9503C8.44812 14.1948 8.24803 14.3949 8.00348 14.3949C7.75893 14.3949 7.55884 14.1948 7.55884 13.9503V11.2824C7.55884 11.0379 7.75893 10.8378 8.00348 10.8378ZM11.5606 11.2824V13.9503C11.5606 14.1948 11.3605 14.3949 11.1159 14.3949C10.8714 14.3949 10.6713 14.1948 10.6713 13.9503V11.2824C10.6713 11.0379 10.8714 10.8378 11.1159 10.8378C11.3605 10.8378 11.5606 11.0379 11.5606 11.2824Z" fill="#201E45"/>
<path d="M8.88726 7.47547H10.0666C10.2631 7.47547 10.4597 7.28859 10.4597 7.10171V3.17712C10.4597 2.99023 10.2631 2.80336 10.0666 2.80336H8.88726C8.69071 2.80336 8.49416 2.99023 8.49416 3.17712V7.10171C8.49416 7.28859 8.69071 7.47547 8.88726 7.47547ZM11.8355 7.47547H13.0148C13.2114 7.47547 13.4079 7.28859 13.4079 7.10171V0.373825C13.4079 0.186938 13.2114 0 13.0148 0H11.8355C11.639 0 11.4424 0.186938 11.4424 0.373825V7.10171C11.4424 7.28859 11.639 7.47547 11.8355 7.47547ZM2.99075 7.47547H4.17006C4.36661 7.47547 4.56316 7.28859 4.56316 7.10171V5.046C4.56316 4.85912 4.36661 4.67218 4.17006 4.67218H2.99075C2.7942 4.67218 2.59766 4.85912 2.59766 5.046V7.10171C2.59766 7.28859 2.7942 7.47547 2.99075 7.47547Z" fill="#201E45"/>
<path d="M7.0851 5.21875H5.9666C5.71901 5.22206 5.63578 5.30676 5.59376 5.59158V7.08292C5.62775 7.3707 5.71624 7.4363 5.9666 7.45575H7.0851C7.40519 7.43966 7.4314 7.33167 7.45793 7.08292V5.59158C7.4428 5.33771 7.34674 5.2593 7.0851 5.21875Z" fill="#5B8C5A"/>
</svg>
