<svg width="800" height="267" viewBox="0 0 800 267" fill="none" xmlns="http://www.w3.org/2000/svg">
<path d="M312.629 240.648V229.396L312.126 227.287V208.098C312.126 204.012 310.921 200.865 308.51 198.654C306.165 196.377 302.616 195.239 297.86 195.239C294.712 195.239 291.632 195.774 288.618 196.846C285.604 197.851 283.059 199.224 280.982 200.965L276.964 193.732C279.71 191.521 282.992 189.847 286.809 188.708C290.694 187.503 294.746 186.9 298.965 186.9C306.266 186.9 311.892 188.675 315.844 192.225C319.795 195.774 321.771 201.199 321.771 208.5V240.648H312.629ZM295.148 241.251C291.196 241.251 287.713 240.581 284.7 239.242C281.753 237.902 279.475 236.061 277.868 233.716C276.261 231.305 275.457 228.593 275.457 225.579C275.457 222.699 276.127 220.087 277.466 217.743C278.873 215.398 281.116 213.523 284.197 212.117C287.345 210.71 291.565 210.007 296.856 210.007H313.734V216.939H297.258C292.435 216.939 289.187 217.743 287.513 219.35C285.838 220.957 285.001 222.9 285.001 225.177C285.001 227.789 286.039 229.899 288.115 231.506C290.192 233.047 293.072 233.817 296.755 233.817C300.372 233.817 303.52 233.013 306.199 231.406C308.945 229.798 310.921 227.454 312.126 224.373L314.035 231.004C312.763 234.152 310.519 236.663 307.304 238.539C304.089 240.347 300.037 241.251 295.148 241.251ZM376.088 186.9C380.441 186.9 384.259 187.737 387.541 189.412C390.889 191.086 393.501 193.631 395.377 197.047C397.252 200.463 398.19 204.783 398.19 210.007V240.648H388.545V211.112C388.545 205.955 387.273 202.07 384.728 199.458C382.249 196.846 378.733 195.54 374.179 195.54C370.763 195.54 367.783 196.21 365.237 197.549C362.692 198.889 360.717 200.865 359.31 203.477C357.971 206.089 357.301 209.337 357.301 213.222V240.648H347.656V187.402H356.899V201.769L355.392 197.951C357.133 194.468 359.812 191.756 363.429 189.813C367.046 187.871 371.265 186.9 376.088 186.9ZM457.129 240.648V229.396L456.626 227.287V208.098C456.626 204.012 455.421 200.865 453.01 198.654C450.665 196.377 447.116 195.239 442.36 195.239C439.212 195.239 436.132 195.774 433.118 196.846C430.104 197.851 427.559 199.224 425.482 200.965L421.464 193.732C424.21 191.521 427.492 189.847 431.309 188.708C435.194 187.503 439.246 186.9 443.465 186.9C450.766 186.9 456.392 188.675 460.343 192.225C464.295 195.774 466.271 201.199 466.271 208.5V240.648H457.129ZM439.648 241.251C435.696 241.251 432.213 240.581 429.2 239.242C426.253 237.902 423.975 236.061 422.368 233.716C420.76 231.305 419.957 228.593 419.957 225.579C419.957 222.699 420.627 220.087 421.966 217.743C423.373 215.398 425.616 213.523 428.697 212.117C431.845 210.71 436.065 210.007 441.356 210.007H458.234V216.939H441.758C436.935 216.939 433.687 217.743 432.013 219.35C430.338 220.957 429.501 222.9 429.501 225.177C429.501 227.789 430.539 229.899 432.615 231.506C434.692 233.047 437.572 233.817 441.255 233.817C444.872 233.817 448.02 233.013 450.699 231.406C453.445 229.798 455.421 227.454 456.626 224.373L458.535 231.004C457.263 234.152 455.019 236.663 451.804 238.539C448.589 240.347 444.537 241.251 439.648 241.251ZM492.156 240.648V166.104H501.801V240.648H492.156ZM530.563 260.741C528.018 260.741 525.54 260.306 523.129 259.435C520.718 258.632 518.642 257.426 516.9 255.819L521.019 248.585C522.359 249.858 523.832 250.829 525.44 251.499C527.047 252.168 528.755 252.503 530.563 252.503C532.908 252.503 534.85 251.9 536.39 250.695C537.931 249.489 539.371 247.346 540.71 244.265L544.026 236.931L545.03 235.726L565.927 187.402H575.37L549.551 245.973C548.011 249.724 546.269 252.671 544.327 254.814C542.452 256.957 540.375 258.464 538.098 259.335C535.821 260.272 533.309 260.741 530.563 260.741ZM543.222 242.356L518.909 187.402H528.956L549.652 234.822L543.222 242.356ZM612.165 241.251C606.807 241.251 602.654 239.811 599.707 236.931C596.76 234.051 595.287 229.932 595.287 224.574V175.748H604.931V224.172C604.931 227.052 605.635 229.262 607.041 230.803C608.515 232.343 610.591 233.114 613.27 233.114C616.284 233.114 618.795 232.276 620.805 230.602L623.819 237.534C622.345 238.807 620.57 239.744 618.494 240.347C616.485 240.95 614.375 241.251 612.165 241.251ZM586.245 195.339V187.402H620.202V195.339H586.245ZM643.516 240.648V187.402H653.161V240.648H643.516ZM648.338 177.155C646.463 177.155 644.889 176.552 643.616 175.347C642.411 174.141 641.808 172.668 641.808 170.926C641.808 169.118 642.411 167.611 643.616 166.405C644.889 165.2 646.463 164.597 648.338 164.597C650.214 164.597 651.754 165.2 652.96 166.405C654.232 167.544 654.868 168.984 654.868 170.725C654.868 172.534 654.266 174.074 653.06 175.347C651.854 176.552 650.281 177.155 648.338 177.155ZM702.82 241.251C697.395 241.251 692.539 240.079 688.252 237.735C684.033 235.391 680.718 232.176 678.306 228.09C675.895 224.005 674.69 219.316 674.69 214.025C674.69 208.734 675.895 204.046 678.306 199.96C680.718 195.875 684.033 192.693 688.252 190.416C692.539 188.072 697.395 186.9 702.82 186.9C707.642 186.9 711.929 187.871 715.679 189.813C719.497 191.689 722.444 194.502 724.52 198.252L717.186 202.974C715.445 200.362 713.302 198.453 710.756 197.248C708.278 195.975 705.599 195.339 702.719 195.339C699.237 195.339 696.122 196.109 693.376 197.65C690.63 199.19 688.453 201.367 686.846 204.18C685.239 206.926 684.435 210.208 684.435 214.025C684.435 217.843 685.239 221.158 686.846 223.971C688.453 226.784 690.63 228.961 693.376 230.502C696.122 232.042 699.237 232.812 702.719 232.812C705.599 232.812 708.278 232.209 710.756 231.004C713.302 229.731 715.445 227.789 717.186 225.177L724.52 229.798C722.444 233.482 719.497 236.328 715.679 238.338C711.929 240.28 707.642 241.251 702.82 241.251ZM778.097 240.648V229.396L777.594 227.287V208.098C777.594 204.012 776.389 200.865 773.978 198.654C771.633 196.377 768.084 195.239 763.328 195.239C760.181 195.239 757.1 195.774 754.086 196.846C751.072 197.851 748.527 199.224 746.45 200.965L742.432 193.732C745.178 191.521 748.46 189.847 752.277 188.708C756.162 187.503 760.214 186.9 764.434 186.9C771.734 186.9 777.36 188.675 781.312 192.225C785.263 195.774 787.239 201.199 787.239 208.5V240.648H778.097ZM760.616 241.251C756.664 241.251 753.181 240.581 750.168 239.242C747.221 237.902 744.943 236.061 743.336 233.716C741.729 231.305 740.925 228.593 740.925 225.579C740.925 222.699 741.595 220.087 742.934 217.743C744.341 215.398 746.584 213.523 749.665 212.117C752.813 210.71 757.033 210.007 762.324 210.007H779.202V216.939H762.726C757.903 216.939 754.655 217.743 752.981 219.35C751.306 220.957 750.469 222.9 750.469 225.177C750.469 227.789 751.507 229.899 753.583 231.506C755.66 233.047 758.54 233.817 762.223 233.817C765.84 233.817 768.988 233.013 771.667 231.406C774.413 229.798 776.389 227.454 777.594 224.373L779.503 231.004C778.231 234.152 775.987 236.663 772.772 238.539C769.557 240.347 765.505 241.251 760.616 241.251Z" fill="#5B8C5A"/>
<path d="M320.909 67.5365H367.45V73.3455C367.45 79.8921 366.343 86.0007 364.131 91.6713C361.964 97.342 358.852 102.321 354.795 106.609C350.738 110.896 345.897 114.239 340.272 116.636C334.648 119.033 328.424 120.232 321.601 120.232C314.547 120.232 308.139 119.033 302.376 116.636C296.659 114.193 291.726 110.804 287.577 106.47C283.428 102.137 280.247 97.1114 278.034 91.3947C275.821 85.6319 274.714 79.4541 274.714 72.8614C274.714 66.3148 275.821 60.1831 278.034 54.4664C280.247 48.7036 283.428 43.6784 287.577 39.3908C291.726 35.0571 296.659 31.6916 302.376 29.2943C308.139 26.8509 314.547 25.6291 321.601 25.6291C327.364 25.6291 332.435 26.2515 336.815 27.4963C341.24 28.7411 345.044 30.4008 348.225 32.4754C351.406 34.55 354.103 36.8321 356.316 39.3216C358.529 41.7651 360.373 44.1624 361.848 46.5137L342.209 55.7803C340.318 52.8759 337.737 50.3402 334.463 48.1734C331.236 46.0065 326.949 44.9231 321.601 44.9231C317.866 44.9231 314.432 45.6608 311.297 47.1361C308.208 48.6114 305.534 50.6399 303.275 53.2216C301.016 55.7573 299.264 58.7309 298.019 62.1425C296.82 65.508 296.221 69.081 296.221 72.8614C296.221 76.6879 296.82 80.2839 298.019 83.6494C299.264 87.0149 301.016 89.9886 303.275 92.5703C305.534 95.1521 308.208 97.1806 311.297 98.6559C314.432 100.085 317.866 100.8 321.601 100.8C324.874 100.8 327.848 100.385 330.522 99.5549C333.196 98.725 335.501 97.5264 337.437 95.9589C339.419 94.3914 340.964 92.5473 342.07 90.4265C343.223 88.2597 343.914 85.8854 344.145 83.3037H320.909V67.5365ZM410.672 27.2888H431.211L467.24 118.572H445.18L438.541 100.246H403.411L396.703 118.572H374.574L410.672 27.2888ZM410.327 82.128H431.695L421.115 52.1843H420.907L410.327 82.128ZM488.17 45.4072H466.387V27.2888H530.562V45.4072H508.847V118.572H488.17V45.4072ZM599.338 81.8514H567.803V118.572H547.195V27.2888H567.803V63.8022H599.338V27.2888H619.876V118.572H599.338V81.8514ZM641.061 27.2888H699.358V45.4072H661.669V64.0097H699.013V81.5748H661.669V100.454H699.358V118.572H641.061V27.2888ZM720.06 27.2888H757.265C762.567 27.2888 767.293 28.3953 771.442 30.6082C775.591 32.8212 778.864 36.0253 781.262 40.2207C783.705 44.3699 784.927 49.3259 784.927 55.0888C784.927 60.8516 783.89 65.5772 781.815 69.2654C779.786 72.9075 777.343 75.6506 774.485 77.4947C771.626 79.2927 768.975 80.3761 766.532 80.745L788.73 118.572H765.495L745.716 82.3355H740.737V118.572H720.06V27.2888ZM740.737 68.0206H749.866C753.554 68.0206 756.781 67.1216 759.547 65.3236C762.313 63.5256 763.696 60.3445 763.696 55.7803C763.696 51.2162 762.336 48.0581 759.616 46.3062C756.896 44.5082 753.692 43.6092 750.004 43.6092H740.737V68.0206Z" fill="#201E45"/>
<path d="M50.7054 127.245H13.7974C6.16571 127.245 0 133.411 0 141.042C0 148.674 6.16571 154.84 13.7974 154.84L36.1751 244.307C39.2364 256.595 50.2743 265.219 62.9506 265.219H185.403C198.079 265.219 209.117 256.595 212.178 244.307L234.556 154.84C242.187 154.84 248.353 148.674 248.353 141.042C248.353 133.411 242.187 127.245 234.556 127.245H197.648C119.649 127.243 175.914 127.245 50.7054 127.245ZM82.7844 175.536V216.928C82.7844 220.722 79.68 223.827 75.8857 223.827C72.0914 223.827 68.987 220.722 68.987 216.928V175.536C68.987 171.741 72.0914 168.637 75.8857 168.637C79.68 168.637 82.7844 171.741 82.7844 175.536ZM124.177 168.637C127.971 168.637 131.075 171.741 131.075 175.536V216.928C131.075 220.722 127.971 223.827 124.177 223.827C120.382 223.827 117.278 220.722 117.278 216.928V175.536C117.278 171.741 120.382 168.637 124.177 168.637ZM179.366 175.536V216.928C179.366 220.722 176.262 223.827 172.467 223.827C168.673 223.827 165.569 220.722 165.569 216.928V175.536C165.569 171.741 168.673 168.637 172.467 168.637C176.262 168.637 179.366 171.741 179.366 175.536Z" fill="#201E45"/>
<path d="M137.898 116.463H156.195C159.245 116.463 162.294 113.563 162.294 110.664V49.7726C162.294 46.8729 159.245 43.9735 156.195 43.9735H137.898C134.848 43.9735 131.799 46.8729 131.799 49.7726V110.664C131.799 113.563 134.848 116.463 137.898 116.463ZM183.641 116.463H201.938C204.988 116.463 208.037 113.563 208.037 110.664V6.27854C208.037 3.37893 204.988 0.478516 201.938 0.478516H183.641C180.591 0.478516 177.542 3.37893 177.542 6.27854V110.664C177.542 113.563 180.591 116.463 183.641 116.463ZM46.4116 116.463H64.7088C67.7583 116.463 70.8079 113.563 70.8079 110.664V78.7689C70.8079 75.8693 67.7583 72.9689 64.7088 72.9689H46.4116C43.362 72.9689 40.3125 75.8693 40.3125 78.7689V110.664C40.3125 113.563 43.362 116.463 46.4116 116.463Z" fill="#201E45"/>
<path d="M109.908 81.4629H92.5544C88.7129 81.5142 87.4217 82.8284 86.7697 87.2475V110.386C87.2971 114.851 88.6701 115.869 92.5544 116.171H109.908C114.875 115.921 115.281 114.246 115.693 110.386V87.2475C115.458 83.3086 113.968 82.092 109.908 81.4629Z" fill="#5B8C5A"/>
</svg>
