<svg width="200" height="214" viewBox="0 0 200 214" fill="none" xmlns="http://www.w3.org/2000/svg">
<path d="M40.8333 102.079H11.1111C4.96528 102.079 0 107.044 0 113.19C0 119.336 4.96528 124.301 11.1111 124.301L29.1319 196.349C31.5972 206.245 40.4861 213.19 50.6944 213.19H149.306C159.514 213.19 168.403 206.245 170.868 196.349L188.889 124.301C195.035 124.301 200 119.336 200 113.19C200 107.044 195.035 102.079 188.889 102.079H159.167C96.3542 102.077 141.664 102.079 40.8333 102.079ZM66.6667 140.968V174.301C66.6667 177.356 64.1667 179.856 61.1111 179.856C58.0556 179.856 55.5556 177.356 55.5556 174.301V140.968C55.5556 137.912 58.0556 135.412 61.1111 135.412C64.1667 135.412 66.6667 137.912 66.6667 140.968ZM100 135.412C103.056 135.412 105.556 137.912 105.556 140.968V174.301C105.556 177.356 103.056 179.856 100 179.856C96.9444 179.856 94.4444 177.356 94.4444 174.301V140.968C94.4444 137.912 96.9444 135.412 100 135.412ZM144.444 140.968V174.301C144.444 177.356 141.944 179.856 138.889 179.856C135.833 179.856 133.333 177.356 133.333 174.301V140.968C133.333 137.912 135.833 135.412 138.889 135.412C141.944 135.412 144.444 137.912 144.444 140.968Z" fill="#201E45"/>
<path d="M111.039 93.4028H125.774C128.23 93.4028 130.685 91.0678 130.685 88.7328V39.6967C130.685 37.3617 128.23 35.0267 125.774 35.0267H111.039C108.583 35.0267 106.127 37.3617 106.127 39.6967V88.7328C106.127 91.0678 108.583 93.4028 111.039 93.4028ZM147.876 93.4028H162.611C165.067 93.4028 167.523 91.0678 167.523 88.7328V4.67078C167.523 2.33572 165.067 0 162.611 0H147.876C145.42 0 142.964 2.33572 142.964 4.67078V88.7328C142.964 91.0678 145.42 93.4028 147.876 93.4028ZM37.3647 93.4028H52.0996C54.5554 93.4028 57.0112 91.0678 57.0112 88.7328V63.0476C57.0112 60.7126 54.5554 58.3768 52.0996 58.3768H37.3647C34.9089 58.3768 32.4531 60.7126 32.4531 63.0476V88.7328C32.4531 91.0678 34.9089 93.4028 37.3647 93.4028Z" fill="#201E45"/>
<path d="M88.5244 65.207H74.5492C71.4557 65.2484 70.4158 66.3067 69.8908 69.8654V88.499C70.3155 92.0947 71.4211 92.9143 74.5492 93.1574H88.5244C92.5237 92.9563 92.8513 91.607 93.1827 88.499V69.8654C92.9937 66.6934 91.7935 65.7137 88.5244 65.207Z" fill="#5B8C5A"/>
</svg>
